@startuml

title __ENTITIES's Class Diagram__\n

  package  {
    package engine.entities {
      class CollisionDetectorTest {
          + playerCollidingWithEnemy()
          + playerCollidingWithPowerUp()
          + playerLightAttackHitDetected()
      }
    }
  }
  

  package  {
    package engine.entities {
      class PlayerTest {
          + setUp()
          + onCreatePlayerIsAlive()
          + playerHealthCantExceedMaxHealth()
          + takeDamageRemovesHealth()
          + takeDamageStoresLastAttacker()
          + takeDamageIncreasesIframes()
          + lightAttack()
          + removeHealth()
          + chargeHeavyAttack()
          + shield()
          + unShield()
          + changeToFire()
          + changeToWater()
          + changeToEarth()
          + changeToAir()
          + playerHealthBelow0IsDead()
          + respawnCausesPlayerToBeAlive()
          + respawnCausesPlayerToSpawnWithIframes()
          + addHealth()
          + speedBoost()
          + damageBoostCauseDamagePowerToBeActivated()
          + damageBoostSetsDamageMultiplierToTwo()
      }
    }
  }
  

  PlayerTest o-- Player : player
  PlayerTest o-- Player : enemy


right footer


PlantUML diagram generated by SketchIt! (https://bitbucket.org/pmesmeur/sketch.it)
For more information about this tool, please contact philippe.mesmeur@gmail.com
endfooter

@enduml
